<svg width="463" height="210" viewBox="0 0 463 210" fill="none" xmlns="http://www.w3.org/2000/svg">
    <path
        d="M331.698 76.9442C378.952 79.1101 416.705 82.7398 438.527 87.2149C460.348 91.69 464.887 96.7336 451.369 101.486C437.852 106.239 387.219 110.127 344.5 113M145 116C91.3284 113.527 120.047 114.36 76.3269 111.571C37.8374 108.217 12.9866 103.72 6.00862 98.8454C-0.969321 93.9712 10.3574 89.0217 38.0588 84.8403C65.7603 80.6588 108.122 77.5042 157.927 75.9138"
        stroke="black" stroke-width="8" stroke-linecap="round" stroke-dasharray="24 24" />
    <path
        d="M241.17 0C298.986 0 345.855 46.8684 345.855 104.684C345.855 162.499 298.986 209.368 241.17 209.368C183.355 209.368 136.487 162.499 136.487 104.684C136.487 46.8685 183.355 0.000136085 241.17 0ZM289.04 95.7383C277.206 95.7384 267.38 104.153 265.45 115.208C265.387 115.209 265.324 115.21 265.261 115.211L261.389 115.235C259.18 115.244 257.396 117.042 257.405 119.251C257.414 121.46 259.211 123.243 261.42 123.234C262.781 123.229 264.126 123.219 265.457 123.207C267.401 134.245 277.219 142.641 289.04 142.641C302.258 142.641 312.974 132.141 312.974 119.189C312.974 106.238 302.258 95.7383 289.04 95.7383ZM201.552 114.662C199.343 114.635 197.53 116.403 197.502 118.611C197.475 120.82 199.244 122.634 201.453 122.661L217.04 122.856L231.82 123.044C234.029 123.071 235.841 121.303 235.869 119.094C235.896 116.885 234.126 115.072 231.917 115.045L217.142 114.856L201.552 114.662ZM154.87 112.289C152.753 112.283 150.981 113.937 150.867 116.074C150.748 118.28 152.441 120.165 154.647 120.283L159.38 120.542C163.809 120.789 167.347 121.002 170.2 121.186C172.404 121.327 174.306 119.655 174.448 117.45C174.59 115.246 172.918 113.344 170.713 113.202L167.599 113.007C164.243 112.802 160.137 112.566 155.075 112.295L154.87 112.289ZM338.934 113.299C338.628 111.181 336.714 109.691 334.607 109.888L334.403 109.912C330.566 110.467 326.894 110.968 323.352 111.418L319.851 111.852C317.658 112.116 316.094 114.109 316.359 116.302C316.615 118.426 318.494 119.961 320.605 119.813L320.81 119.794C325.493 119.229 330.376 118.578 335.547 117.83L335.75 117.795C337.827 117.386 339.24 115.417 338.934 113.299Z"
        fill="currentColor" />
</svg>
