<?xml version="1.0" encoding="UTF-8"?>
<svg id="Layer_2" data-name="Layer 2" xmlns="http://www.w3.org/2000/svg" viewBox="0 0 415.74 36">
  <defs>
    <style>
      .cls-1 {
        fill: #ccccd4;
      }
    </style>
  </defs>
  <g id="datalabs">
    <g>
      <path class="cls-1" d="M0,27.2v-.25c0-1.1.65-1.75,1.75-1.75h1.7c1.1,0,1.75.65,1.75,1.75v.65c0,2.5,1.1,3.4,2.85,3.4s2.85-.9,2.85-3.5c0-2.9-1.1-4.75-4.7-7.9C1.6,15.55.1,12.7.1,8.7.1,3.2,2.95,0,8.3,0s8,3.3,8,8.5c0,1.2-.65,1.75-1.75,1.75h-1.7c-1.1,0-1.75-.55-1.75-1.75v-.05c0-2.5-1-3.45-2.75-3.45s-2.75.95-2.75,3.35c0,2.55,1.15,4.4,4.75,7.55,4.6,4.05,6.05,6.85,6.05,11.2,0,5.7-2.9,8.9-8.3,8.9S0,32.8,0,27.2Z"/>
      <path class="cls-1" d="M20.05,33.75V2.25c0-1.1.65-1.75,1.75-1.75h6.35c5.5,0,8.2,3.05,8.2,8.65v3.45c0,5.6-2.7,8.65-8.2,8.65h-2.6v12.5c0,1.1-.65,1.75-1.75,1.75h-2c-1.1,0-1.75-.65-1.75-1.75ZM28.15,16.25c1.75,0,2.7-.8,2.7-3.3v-4.15c0-2.5-.95-3.3-2.7-3.3h-2.6v10.75h2.6Z"/>
      <path class="cls-1" d="M39.85,33.75V2.25c0-1.1.65-1.75,1.75-1.75h11.5c1.1,0,1.75.65,1.75,1.75v1.5c0,1.1-.65,1.75-1.75,1.75h-7.75v9.25h5.8c1.1,0,1.75.65,1.75,1.75v1.5c0,1.1-.65,1.75-1.75,1.75h-5.8v10.75h7.75c1.1,0,1.75.65,1.75,1.75v1.5c0,1.1-.65,1.75-1.75,1.75h-11.5c-1.1,0-1.75-.65-1.75-1.75Z"/>
      <path class="cls-1" d="M58.15,27.4V8.6c0-5.4,2.8-8.6,8.1-8.6s8.1,3.2,8.1,8.6v1.95c0,1.1-.65,1.75-1.75,1.75h-1.7c-1.1,0-1.75-.65-1.75-1.75v-2.3c0-2.3-1.1-3.25-2.75-3.25s-2.75.95-2.75,3.25v19.55c0,2.3,1.1,3.2,2.75,3.2s2.75-.9,2.75-3.2v-3.6c0-1.1.65-1.75,1.75-1.75h1.7c1.1,0,1.75.65,1.75,1.75v3.2c0,5.4-2.8,8.6-8.1,8.6s-8.1-3.2-8.1-8.6Z"/>
      <path class="cls-1" d="M82.45,33.75V5.5h-4c-1.1,0-1.75-.65-1.75-1.75v-1.5c0-1.1.65-1.75,1.75-1.75h13.5c1.1,0,1.75.65,1.75,1.75v1.5c0,1.1-.65,1.75-1.75,1.75h-4v28.25c0,1.1-.65,1.75-1.75,1.75h-2c-1.1,0-1.75-.65-1.75-1.75Z"/>
      <path class="cls-1" d="M96.85,33.75V2.25c0-1.1.65-1.75,1.75-1.75h6.4c5.7,0,8.15,2.65,8.15,8.05v2.15c0,3.6-1.15,5.9-3.6,6.9v.1c2.75.85,3.65,3.45,3.65,7.4v6.15c0,.9,0,1.65.15,2.35.05.25.1.45.1.65,0,.8-.55,1.25-1.5,1.25h-2.2c-1,0-1.8-.45-1.9-1.5-.1-.6-.15-1.4-.15-2.8v-6.4c0-3.25-.95-4.3-3.45-4.3h-1.9v13.25c0,1.1-.65,1.75-1.75,1.75h-2c-1.1,0-1.75-.65-1.75-1.75ZM104.35,15.5c2.05,0,3.3-.9,3.3-3.7v-2.7c0-2.5-.85-3.6-2.8-3.6h-2.5v10h2Z"/>
      <path class="cls-1" d="M117.3,27.2V2.25c0-1.1.65-1.75,1.75-1.75h2c1.1,0,1.75.65,1.75,1.75v25.35c0,2.5,1.05,3.4,2.8,3.4s2.8-.9,2.8-3.4V2.25c0-1.1.65-1.75,1.75-1.75h1.8c1.1,0,1.75.65,1.75,1.75v24.95c0,5.6-2.8,8.8-8.2,8.8s-8.2-3.2-8.2-8.8Z"/>
      <path class="cls-1" d="M138.1,33.75V2.25c0-1.1.65-1.75,1.75-1.75h4.45c1.05,0,1.75.5,1.9,1.6l3.25,23.45h.1l3.25-23.45c.15-1.1.85-1.6,1.9-1.6h4.45c1.1,0,1.75.65,1.75,1.75v31.5c0,1.1-.65,1.75-1.75,1.75h-1.7c-1.1,0-1.75-.65-1.75-1.75V9h-.1l-3.75,24.9c-.15,1.1-.85,1.6-1.9,1.6h-1.3c-1.05,0-1.75-.5-1.9-1.6l-3.75-24.9h-.1v24.75c0,1.1-.65,1.75-1.75,1.75h-1.3c-1.1,0-1.75-.65-1.75-1.75Z"/>
      <path class="cls-1" d="M174,33.75V2.25c0-1.1.65-1.75,1.75-1.75h2c1.1,0,1.75.65,1.75,1.75v28.25h7.3c1.1,0,1.75.65,1.75,1.75v1.5c0,1.1-.65,1.75-1.75,1.75h-11.05c-1.1,0-1.75-.65-1.75-1.75Z"/>
      <path class="cls-1" d="M190.6,34c0-.1,0-.15.05-.45l5.25-31.45c.15-1.05.8-1.6,1.85-1.6h4.25c1.05,0,1.7.55,1.85,1.6l5.25,31.45c.05.3.05.35.05.45,0,.95-.6,1.5-1.65,1.5h-1.95c-1.05,0-1.75-.5-1.9-1.6l-.75-5.35v.1h-6.45l-.75,5.25c-.15,1.1-.85,1.6-1.9,1.6h-1.55c-1.05,0-1.65-.55-1.65-1.5ZM202.25,23.9l-2.55-17.3h-.1l-2.5,17.3h5.15Z"/>
      <path class="cls-1" d="M212.45,33.75V2.25c0-1.1.65-1.75,1.75-1.75h6.55c5.7,0,8.15,2.65,8.15,8.05v1.4c0,3.6-1.1,5.85-3.55,6.85v.1c2.95,1,4.1,3.6,4.1,7.3v3c0,5.4-2.85,8.3-8.35,8.3h-6.9c-1.1,0-1.75-.65-1.75-1.75ZM220.1,14.75c2.05,0,3.3-.9,3.3-3.7v-1.95c0-2.5-.85-3.6-2.8-3.6h-2.65v9.25h2.15ZM221.1,30.5c1.85,0,2.85-.85,2.85-3.45v-3.05c0-3.25-1.05-4.25-3.55-4.25h-2.45v10.75h3.15Z"/>
      <path class="cls-1" d="M241.65,33.75V2.25c0-1.1.65-1.75,1.75-1.75h6.4c5.7,0,8.15,2.65,8.15,8.05v2.15c0,3.6-1.15,5.9-3.6,6.9v.1c2.75.85,3.65,3.45,3.65,7.4v6.15c0,.9,0,1.65.15,2.35.05.25.1.45.1.65,0,.8-.55,1.25-1.5,1.25h-2.2c-1,0-1.8-.45-1.9-1.5-.1-.6-.15-1.4-.15-2.8v-6.4c0-3.25-.95-4.3-3.45-4.3h-1.9v13.25c0,1.1-.65,1.75-1.75,1.75h-2c-1.1,0-1.75-.65-1.75-1.75ZM249.15,15.5c2.05,0,3.3-.9,3.3-3.7v-2.7c0-2.5-.85-3.6-2.8-3.6h-2.5v10h2Z"/>
      <path class="cls-1" d="M262.29,33.75V2.25c0-1.1.65-1.75,1.75-1.75h11.5c1.1,0,1.75.65,1.75,1.75v1.5c0,1.1-.65,1.75-1.75,1.75h-7.75v9.25h5.8c1.1,0,1.75.65,1.75,1.75v1.5c0,1.1-.65,1.75-1.75,1.75h-5.8v10.75h7.75c1.1,0,1.75.65,1.75,1.75v1.5c0,1.1-.65,1.75-1.75,1.75h-11.5c-1.1,0-1.75-.65-1.75-1.75Z"/>
      <path class="cls-1" d="M280.09,27.2v-.25c0-1.1.65-1.75,1.75-1.75h1.7c1.1,0,1.75.65,1.75,1.75v.65c0,2.5,1.1,3.4,2.85,3.4s2.85-.9,2.85-3.5c0-2.9-1.1-4.75-4.7-7.9-4.6-4.05-6.1-6.9-6.1-10.9,0-5.5,2.85-8.7,8.2-8.7s8,3.3,8,8.5c0,1.2-.65,1.75-1.75,1.75h-1.7c-1.1,0-1.75-.55-1.75-1.75v-.05c0-2.5-1-3.45-2.75-3.45s-2.75.95-2.75,3.35c0,2.55,1.15,4.4,4.75,7.55,4.6,4.05,6.05,6.85,6.05,11.2,0,5.7-2.9,8.9-8.3,8.9s-8.1-3.2-8.1-8.8Z"/>
      <path class="cls-1" d="M299.74,27.2V8.8c0-5.6,2.95-8.8,8.35-8.8s8.35,3.2,8.35,8.8v18.4c0,5.6-2.95,8.8-8.35,8.8s-8.35-3.2-8.35-8.8ZM310.94,27.55V8.45c0-2.5-1.1-3.45-2.85-3.45s-2.85.95-2.85,3.45v19.1c0,2.5,1.1,3.45,2.85,3.45s2.85-.95,2.85-3.45Z"/>
      <path class="cls-1" d="M320.44,27.2V2.25c0-1.1.65-1.75,1.75-1.75h2c1.1,0,1.75.65,1.75,1.75v25.35c0,2.5,1.05,3.4,2.8,3.4s2.8-.9,2.8-3.4V2.25c0-1.1.65-1.75,1.75-1.75h1.8c1.1,0,1.75.65,1.75,1.75v24.95c0,5.6-2.8,8.8-8.2,8.8s-8.2-3.2-8.2-8.8Z"/>
      <path class="cls-1" d="M341.24,33.75V2.25c0-1.1.65-1.75,1.75-1.75h6.4c5.7,0,8.15,2.65,8.15,8.05v2.15c0,3.6-1.15,5.9-3.6,6.9v.1c2.75.85,3.65,3.45,3.65,7.4v6.15c0,.9,0,1.65.15,2.35.05.25.1.45.1.65,0,.8-.55,1.25-1.5,1.25h-2.2c-1,0-1.8-.45-1.9-1.5-.1-.6-.15-1.4-.15-2.8v-6.4c0-3.25-.95-4.3-3.45-4.3h-1.9v13.25c0,1.1-.65,1.75-1.75,1.75h-2c-1.1,0-1.75-.65-1.75-1.75ZM348.74,15.5c2.05,0,3.3-.9,3.3-3.7v-2.7c0-2.5-.85-3.6-2.8-3.6h-2.5v10h2Z"/>
      <path class="cls-1" d="M361.54,27.4V8.6c0-5.4,2.8-8.6,8.1-8.6s8.1,3.2,8.1,8.6v1.95c0,1.1-.65,1.75-1.75,1.75h-1.7c-1.1,0-1.75-.65-1.75-1.75v-2.3c0-2.3-1.1-3.25-2.75-3.25s-2.75.95-2.75,3.25v19.55c0,2.3,1.1,3.2,2.75,3.2s2.75-.9,2.75-3.2v-3.6c0-1.1.65-1.75,1.75-1.75h1.7c1.1,0,1.75.65,1.75,1.75v3.2c0,5.4-2.8,8.6-8.1,8.6s-8.1-3.2-8.1-8.6Z"/>
      <path class="cls-1" d="M381.54,33.75V2.25c0-1.1.65-1.75,1.75-1.75h11.5c1.1,0,1.75.65,1.75,1.75v1.5c0,1.1-.65,1.75-1.75,1.75h-7.75v9.25h5.8c1.1,0,1.75.65,1.75,1.75v1.5c0,1.1-.65,1.75-1.75,1.75h-5.8v10.75h7.75c1.1,0,1.75.65,1.75,1.75v1.5c0,1.1-.65,1.75-1.75,1.75h-11.5c-1.1,0-1.75-.65-1.75-1.75Z"/>
      <path class="cls-1" d="M399.34,27.2v-.25c0-1.1.65-1.75,1.75-1.75h1.7c1.1,0,1.75.65,1.75,1.75v.65c0,2.5,1.1,3.4,2.85,3.4s2.85-.9,2.85-3.5c0-2.9-1.1-4.75-4.7-7.9-4.6-4.05-6.1-6.9-6.1-10.9,0-5.5,2.85-8.7,8.2-8.7s8,3.3,8,8.5c0,1.2-.65,1.75-1.75,1.75h-1.7c-1.1,0-1.75-.55-1.75-1.75v-.05c0-2.5-1-3.45-2.75-3.45s-2.75.95-2.75,3.35c0,2.55,1.15,4.4,4.75,7.55,4.6,4.05,6.05,6.85,6.05,11.2,0,5.7-2.9,8.9-8.3,8.9s-8.1-3.2-8.1-8.8Z"/>
    </g>
  </g>
</svg>